<svg width="244" height="35" viewBox="0 0 244 35" fill="none" xmlns="http://www.w3.org/2000/svg">
<rect x="5" width="239" height="35" fill="#1761B0"/>
<path d="M23.5584 15.488L22.8864 18.632H25.7664V22.328H22.0944L21.3024 26H17.4624L18.2544 22.328H14.2704L13.4784 26H9.63844L10.4304 22.328H6.87844V18.632H11.2224L11.8944 15.488H8.41444V11.792H12.6624L13.4304 8.24H17.2704L16.5024 11.792H20.4864L21.2544 8.24H25.0944L24.3264 11.792H27.3024V15.488H23.5584ZM19.7184 15.488H15.7344L15.0624 18.632H19.0464L19.7184 15.488ZM44.6616 26H40.5576L33.6936 15.608V26H29.5896V9.152H33.6936L40.5576 19.592V9.152H44.6616V26ZM61.3164 12.608L52.9164 32.36H48.5004L51.5724 25.544L46.1244 12.608H50.7084L53.8044 20.984L56.8764 12.608H61.3164ZM61.9845 19.28C61.9845 17.904 62.2405 16.696 62.7525 15.656C63.2805 14.616 63.9925 13.816 64.8885 13.256C65.7845 12.696 66.7845 12.416 67.8885 12.416C68.8325 12.416 69.6565 12.608 70.3605 12.992C71.0805 13.376 71.6325 13.88 72.0165 14.504V12.608H76.1205V26H72.0165V24.104C71.6165 24.728 71.0565 25.232 70.3365 25.616C69.6325 26 68.8085 26.192 67.8645 26.192C66.7765 26.192 65.7845 25.912 64.8885 25.352C63.9925 24.776 63.2805 23.968 62.7525 22.928C62.2405 21.872 61.9845 20.656 61.9845 19.28ZM72.0165 19.304C72.0165 18.28 71.7285 17.472 71.1525 16.88C70.5925 16.288 69.9045 15.992 69.0885 15.992C68.2725 15.992 67.5765 16.288 67.0005 16.88C66.4405 17.456 66.1605 18.256 66.1605 19.28C66.1605 20.304 66.4405 21.12 67.0005 21.728C67.5765 22.32 68.2725 22.616 69.0885 22.616C69.9045 22.616 70.5925 22.32 71.1525 21.728C71.7285 21.136 72.0165 20.328 72.0165 19.304ZM96.1776 12.464C97.8416 12.464 99.1616 12.968 100.138 13.976C101.13 14.984 101.626 16.384 101.626 18.176V26H97.5456V18.728C97.5456 17.864 97.3136 17.2 96.8496 16.736C96.4016 16.256 95.7776 16.016 94.9776 16.016C94.1776 16.016 93.5456 16.256 93.0816 16.736C92.6336 17.2 92.4096 17.864 92.4096 18.728V26H88.3296V18.728C88.3296 17.864 88.0976 17.2 87.6336 16.736C87.1856 16.256 86.5616 16.016 85.7616 16.016C84.9616 16.016 84.3296 16.256 83.8656 16.736C83.4176 17.2 83.1936 17.864 83.1936 18.728V26H79.0896V12.608H83.1936V14.288C83.6096 13.728 84.1536 13.288 84.8256 12.968C85.4976 12.632 86.2576 12.464 87.1056 12.464C88.1136 12.464 89.0096 12.68 89.7936 13.112C90.5936 13.544 91.2176 14.16 91.6656 14.96C92.1296 14.224 92.7616 13.624 93.5616 13.16C94.3616 12.696 95.2336 12.464 96.1776 12.464ZM108.6 14.504C108.984 13.88 109.536 13.376 110.256 12.992C110.976 12.608 111.8 12.416 112.728 12.416C113.832 12.416 114.832 12.696 115.728 13.256C116.624 13.816 117.328 14.616 117.84 15.656C118.368 16.696 118.632 17.904 118.632 19.28C118.632 20.656 118.368 21.872 117.84 22.928C117.328 23.968 116.624 24.776 115.728 25.352C114.832 25.912 113.832 26.192 112.728 26.192C111.784 26.192 110.96 26.008 110.256 25.64C109.552 25.256 109 24.752 108.6 24.128V26H104.496V8.24H108.6V14.504ZM114.456 19.28C114.456 18.256 114.168 17.456 113.592 16.88C113.032 16.288 112.336 15.992 111.504 15.992C110.688 15.992 109.992 16.288 109.416 16.88C108.856 17.472 108.576 18.28 108.576 19.304C108.576 20.328 108.856 21.136 109.416 21.728C109.992 22.32 110.688 22.616 111.504 22.616C112.32 22.616 113.016 22.32 113.592 21.728C114.168 21.12 114.456 20.304 114.456 19.28ZM134.009 12.608V26H129.905V24.176C129.489 24.768 128.921 25.248 128.201 25.616C127.497 25.968 126.713 26.144 125.849 26.144C124.825 26.144 123.921 25.92 123.137 25.472C122.353 25.008 121.745 24.344 121.313 23.48C120.881 22.616 120.665 21.6 120.665 20.432V12.608H124.745V19.88C124.745 20.776 124.977 21.472 125.441 21.968C125.905 22.464 126.529 22.712 127.313 22.712C128.113 22.712 128.745 22.464 129.209 21.968C129.673 21.472 129.905 20.776 129.905 19.88V12.608H134.009ZM145.117 12.464C146.685 12.464 147.933 12.976 148.861 14C149.805 15.008 150.277 16.4 150.277 18.176V26H146.197V18.728C146.197 17.832 145.965 17.136 145.501 16.64C145.037 16.144 144.413 15.896 143.629 15.896C142.845 15.896 142.221 16.144 141.757 16.64C141.293 17.136 141.061 17.832 141.061 18.728V26H136.957V12.608H141.061V14.384C141.477 13.792 142.037 13.328 142.741 12.992C143.445 12.64 144.237 12.464 145.117 12.464ZM158.217 12.416C159.161 12.416 159.985 12.608 160.689 12.992C161.409 13.376 161.961 13.88 162.345 14.504V12.608H166.449V25.976C166.449 27.208 166.201 28.32 165.705 29.312C165.225 30.32 164.481 31.12 163.473 31.712C162.481 32.304 161.241 32.6 159.753 32.6C157.769 32.6 156.161 32.128 154.929 31.184C153.697 30.256 152.993 28.992 152.817 27.392H156.873C157.001 27.904 157.305 28.304 157.785 28.592C158.265 28.896 158.857 29.048 159.561 29.048C160.409 29.048 161.081 28.8 161.577 28.304C162.089 27.824 162.345 27.048 162.345 25.976V24.08C161.945 24.704 161.393 25.216 160.689 25.616C159.985 26 159.161 26.192 158.217 26.192C157.113 26.192 156.113 25.912 155.217 25.352C154.321 24.776 153.609 23.968 153.081 22.928C152.569 21.872 152.313 20.656 152.313 19.28C152.313 17.904 152.569 16.696 153.081 15.656C153.609 14.616 154.321 13.816 155.217 13.256C156.113 12.696 157.113 12.416 158.217 12.416ZM162.345 19.304C162.345 18.28 162.057 17.472 161.481 16.88C160.921 16.288 160.233 15.992 159.417 15.992C158.601 15.992 157.905 16.288 157.329 16.88C156.769 17.456 156.489 18.256 156.489 19.28C156.489 20.304 156.769 21.12 157.329 21.728C157.905 22.32 158.601 22.616 159.417 22.616C160.233 22.616 160.921 22.32 161.481 21.728C162.057 21.136 162.345 20.328 162.345 19.304ZM181.538 9.152V12.44H177.074V26H172.97V12.44H168.506V9.152H181.538ZM196.221 19.088C196.221 19.472 196.197 19.872 196.149 20.288H186.861C186.925 21.12 187.189 21.76 187.653 22.208C188.133 22.64 188.717 22.856 189.405 22.856C190.429 22.856 191.141 22.424 191.541 21.56H195.909C195.685 22.44 195.277 23.232 194.685 23.936C194.109 24.64 193.381 25.192 192.501 25.592C191.621 25.992 190.637 26.192 189.549 26.192C188.237 26.192 187.069 25.912 186.045 25.352C185.021 24.792 184.221 23.992 183.645 22.952C183.069 21.912 182.781 20.696 182.781 19.304C182.781 17.912 183.061 16.696 183.621 15.656C184.197 14.616 184.997 13.816 186.021 13.256C187.045 12.696 188.221 12.416 189.549 12.416C190.845 12.416 191.997 12.688 193.005 13.232C194.013 13.776 194.797 14.552 195.357 15.56C195.933 16.568 196.221 17.744 196.221 19.088ZM192.021 18.008C192.021 17.304 191.781 16.744 191.301 16.328C190.821 15.912 190.221 15.704 189.501 15.704C188.813 15.704 188.229 15.904 187.749 16.304C187.285 16.704 186.997 17.272 186.885 18.008H192.021ZM202.49 14.84C202.97 14.104 203.57 13.528 204.29 13.112C205.01 12.68 205.81 12.464 206.69 12.464V16.808H205.562C204.538 16.808 203.77 17.032 203.258 17.48C202.746 17.912 202.49 18.68 202.49 19.784V26H198.386V12.608H202.49V14.84ZM221.876 12.608V26H217.772V24.176C217.356 24.768 216.788 25.248 216.068 25.616C215.364 25.968 214.58 26.144 213.716 26.144C212.692 26.144 211.788 25.92 211.004 25.472C210.22 25.008 209.612 24.344 209.18 23.48C208.748 22.616 208.532 21.6 208.532 20.432V12.608H212.612V19.88C212.612 20.776 212.844 21.472 213.308 21.968C213.772 22.464 214.396 22.712 215.18 22.712C215.98 22.712 216.612 22.464 217.076 21.968C217.54 21.472 217.772 20.776 217.772 19.88V12.608H221.876ZM230.272 26.192C229.104 26.192 228.064 25.992 227.152 25.592C226.24 25.192 225.52 24.648 224.992 23.96C224.464 23.256 224.168 22.472 224.104 21.608H228.16C228.208 22.072 228.424 22.448 228.808 22.736C229.192 23.024 229.664 23.168 230.224 23.168C230.736 23.168 231.128 23.072 231.4 22.88C231.688 22.672 231.832 22.408 231.832 22.088C231.832 21.704 231.632 21.424 231.232 21.248C230.832 21.056 230.184 20.848 229.288 20.624C228.328 20.4 227.528 20.168 226.888 19.928C226.248 19.672 225.696 19.28 225.232 18.752C224.768 18.208 224.536 17.48 224.536 16.568C224.536 15.8 224.744 15.104 225.16 14.48C225.592 13.84 226.216 13.336 227.032 12.968C227.864 12.6 228.848 12.416 229.984 12.416C231.664 12.416 232.984 12.832 233.944 13.664C234.92 14.496 235.48 15.6 235.624 16.976H231.832C231.768 16.512 231.56 16.144 231.208 15.872C230.872 15.6 230.424 15.464 229.864 15.464C229.384 15.464 229.016 15.56 228.76 15.752C228.504 15.928 228.376 16.176 228.376 16.496C228.376 16.88 228.576 17.168 228.976 17.36C229.392 17.552 230.032 17.744 230.896 17.936C231.888 18.192 232.696 18.448 233.32 18.704C233.944 18.944 234.488 19.344 234.952 19.904C235.432 20.448 235.68 21.184 235.696 22.112C235.696 22.896 235.472 23.6 235.024 24.224C234.592 24.832 233.96 25.312 233.128 25.664C232.312 26.016 231.36 26.192 230.272 26.192Z" fill="white"/>
</svg>
