<svg width="305" height="45" viewBox="0 0 305 45" fill="none" xmlns="http://www.w3.org/2000/svg">
<rect x="5" width="295" height="45" fill="#1761B0"/>
<path d="M29.448 19.86L28.608 23.79H32.208V28.41H27.618L26.628 33H21.828L22.818 28.41H17.838L16.848 33H12.048L13.038 28.41H8.59805V23.79H14.028L14.868 19.86H10.518V15.24H15.828L16.788 10.8H21.588L20.628 15.24H25.608L26.568 10.8H31.368L30.408 15.24H34.128V19.86H29.448ZM24.648 19.86H19.668L18.828 23.79H23.808L24.648 19.86ZM55.827 33H50.697L42.117 20.01V33H36.987V11.94H42.117L50.697 24.99V11.94H55.827V33ZM76.6455 16.26L66.1455 40.95H60.6255L64.4655 32.43L57.6555 16.26H63.3855L67.2555 26.73L71.0955 16.26H76.6455ZM77.4806 24.6C77.4806 22.88 77.8006 21.37 78.4406 20.07C79.1006 18.77 79.9906 17.77 81.1106 17.07C82.2306 16.37 83.4806 16.02 84.8606 16.02C86.0406 16.02 87.0706 16.26 87.9506 16.74C88.8506 17.22 89.5406 17.85 90.0206 18.63V16.26H95.1506V33H90.0206V30.63C89.5206 31.41 88.8206 32.04 87.9206 32.52C87.0406 33 86.0106 33.24 84.8306 33.24C83.4706 33.24 82.2306 32.89 81.1106 32.19C79.9906 31.47 79.1006 30.46 78.4406 29.16C77.8006 27.84 77.4806 26.32 77.4806 24.6ZM90.0206 24.63C90.0206 23.35 89.6606 22.34 88.9406 21.6C88.2406 20.86 87.3806 20.49 86.3606 20.49C85.3406 20.49 84.4706 20.86 83.7506 21.6C83.0506 22.32 82.7006 23.32 82.7006 24.6C82.7006 25.88 83.0506 26.9 83.7506 27.66C84.4706 28.4 85.3406 28.77 86.3606 28.77C87.3806 28.77 88.2406 28.4 88.9406 27.66C89.6606 26.92 90.0206 25.91 90.0206 24.63ZM120.222 16.08C122.302 16.08 123.952 16.71 125.172 17.97C126.412 19.23 127.032 20.98 127.032 23.22V33H121.932V23.91C121.932 22.83 121.642 22 121.062 21.42C120.502 20.82 119.722 20.52 118.722 20.52C117.722 20.52 116.932 20.82 116.352 21.42C115.792 22 115.512 22.83 115.512 23.91V33H110.412V23.91C110.412 22.83 110.122 22 109.542 21.42C108.982 20.82 108.202 20.52 107.202 20.52C106.202 20.52 105.412 20.82 104.832 21.42C104.272 22 103.992 22.83 103.992 23.91V33H98.862V16.26H103.992V18.36C104.512 17.66 105.192 17.11 106.032 16.71C106.872 16.29 107.822 16.08 108.882 16.08C110.142 16.08 111.262 16.35 112.242 16.89C113.242 17.43 114.022 18.2 114.582 19.2C115.162 18.28 115.952 17.53 116.952 16.95C117.952 16.37 119.042 16.08 120.222 16.08ZM135.75 18.63C136.23 17.85 136.92 17.22 137.82 16.74C138.72 16.26 139.75 16.02 140.91 16.02C142.29 16.02 143.54 16.37 144.66 17.07C145.78 17.77 146.66 18.77 147.3 20.07C147.96 21.37 148.29 22.88 148.29 24.6C148.29 26.32 147.96 27.84 147.3 29.16C146.66 30.46 145.78 31.47 144.66 32.19C143.54 32.89 142.29 33.24 140.91 33.24C139.73 33.24 138.7 33.01 137.82 32.55C136.94 32.07 136.25 31.44 135.75 30.66V33H130.62V10.8H135.75V18.63ZM143.07 24.6C143.07 23.32 142.71 22.32 141.99 21.6C141.29 20.86 140.42 20.49 139.38 20.49C138.36 20.49 137.49 20.86 136.77 21.6C136.07 22.34 135.72 23.35 135.72 24.63C135.72 25.91 136.07 26.92 136.77 27.66C137.49 28.4 138.36 28.77 139.38 28.77C140.4 28.77 141.27 28.4 141.99 27.66C142.71 26.9 143.07 25.88 143.07 24.6ZM167.511 16.26V33H162.381V30.72C161.861 31.46 161.151 32.06 160.251 32.52C159.371 32.96 158.391 33.18 157.311 33.18C156.031 33.18 154.901 32.9 153.921 32.34C152.941 31.76 152.181 30.93 151.641 29.85C151.101 28.77 150.831 27.5 150.831 26.04V16.26H155.931V25.35C155.931 26.47 156.221 27.34 156.801 27.96C157.381 28.58 158.161 28.89 159.141 28.89C160.141 28.89 160.931 28.58 161.511 27.96C162.091 27.34 162.381 26.47 162.381 25.35V16.26H167.511ZM181.396 16.08C183.356 16.08 184.916 16.72 186.076 18C187.256 19.26 187.846 21 187.846 23.22V33H182.746V23.91C182.746 22.79 182.456 21.92 181.876 21.3C181.296 20.68 180.516 20.37 179.536 20.37C178.556 20.37 177.776 20.68 177.196 21.3C176.616 21.92 176.326 22.79 176.326 23.91V33H171.196V16.26H176.326V18.48C176.846 17.74 177.546 17.16 178.426 16.74C179.306 16.3 180.296 16.08 181.396 16.08ZM197.771 16.02C198.951 16.02 199.981 16.26 200.861 16.74C201.761 17.22 202.451 17.85 202.931 18.63V16.26H208.061V32.97C208.061 34.51 207.751 35.9 207.131 37.14C206.531 38.4 205.601 39.4 204.341 40.14C203.101 40.88 201.551 41.25 199.691 41.25C197.211 41.25 195.201 40.66 193.661 39.48C192.121 38.32 191.241 36.74 191.021 34.74H196.091C196.251 35.38 196.631 35.88 197.231 36.24C197.831 36.62 198.571 36.81 199.451 36.81C200.511 36.81 201.351 36.5 201.971 35.88C202.611 35.28 202.931 34.31 202.931 32.97V30.6C202.431 31.38 201.741 32.02 200.861 32.52C199.981 33 198.951 33.24 197.771 33.24C196.391 33.24 195.141 32.89 194.021 32.19C192.901 31.47 192.011 30.46 191.351 29.16C190.711 27.84 190.391 26.32 190.391 24.6C190.391 22.88 190.711 21.37 191.351 20.07C192.011 18.77 192.901 17.77 194.021 17.07C195.141 16.37 196.391 16.02 197.771 16.02ZM202.931 24.63C202.931 23.35 202.571 22.34 201.851 21.6C201.151 20.86 200.291 20.49 199.271 20.49C198.251 20.49 197.381 20.86 196.661 21.6C195.961 22.32 195.611 23.32 195.611 24.6C195.611 25.88 195.961 26.9 196.661 27.66C197.381 28.4 198.251 28.77 199.271 28.77C200.291 28.77 201.151 28.4 201.851 27.66C202.571 26.92 202.931 25.91 202.931 24.63ZM226.922 11.94V16.05H221.342V33H216.212V16.05H210.632V11.94H226.922ZM245.277 24.36C245.277 24.84 245.247 25.34 245.187 25.86H233.577C233.657 26.9 233.987 27.7 234.567 28.26C235.167 28.8 235.897 29.07 236.757 29.07C238.037 29.07 238.927 28.53 239.427 27.45H244.887C244.607 28.55 244.097 29.54 243.357 30.42C242.637 31.3 241.727 31.99 240.627 32.49C239.527 32.99 238.297 33.24 236.937 33.24C235.297 33.24 233.837 32.89 232.557 32.19C231.277 31.49 230.277 30.49 229.557 29.19C228.837 27.89 228.477 26.37 228.477 24.63C228.477 22.89 228.827 21.37 229.527 20.07C230.247 18.77 231.247 17.77 232.527 17.07C233.807 16.37 235.277 16.02 236.937 16.02C238.557 16.02 239.997 16.36 241.257 17.04C242.517 17.72 243.497 18.69 244.197 19.95C244.917 21.21 245.277 22.68 245.277 24.36ZM240.027 23.01C240.027 22.13 239.727 21.43 239.127 20.91C238.527 20.39 237.777 20.13 236.877 20.13C236.017 20.13 235.287 20.38 234.687 20.88C234.107 21.38 233.747 22.09 233.607 23.01H240.027ZM253.113 19.05C253.713 18.13 254.463 17.41 255.363 16.89C256.263 16.35 257.263 16.08 258.363 16.08V21.51H256.953C255.673 21.51 254.713 21.79 254.073 22.35C253.433 22.89 253.113 23.85 253.113 25.23V33H247.983V16.26H253.113V19.05ZM277.345 16.26V33H272.215V30.72C271.695 31.46 270.985 32.06 270.085 32.52C269.205 32.96 268.225 33.18 267.145 33.18C265.865 33.18 264.735 32.9 263.755 32.34C262.775 31.76 262.015 30.93 261.475 29.85C260.935 28.77 260.665 27.5 260.665 26.04V16.26H265.765V25.35C265.765 26.47 266.055 27.34 266.635 27.96C267.215 28.58 267.995 28.89 268.975 28.89C269.975 28.89 270.765 28.58 271.345 27.96C271.925 27.34 272.215 26.47 272.215 25.35V16.26H277.345ZM287.84 33.24C286.38 33.24 285.08 32.99 283.94 32.49C282.8 31.99 281.9 31.31 281.24 30.45C280.58 29.57 280.21 28.59 280.13 27.51H285.2C285.26 28.09 285.53 28.56 286.01 28.92C286.49 29.28 287.08 29.46 287.78 29.46C288.42 29.46 288.91 29.34 289.25 29.1C289.61 28.84 289.79 28.51 289.79 28.11C289.79 27.63 289.54 27.28 289.04 27.06C288.54 26.82 287.73 26.56 286.61 26.28C285.41 26 284.41 25.71 283.61 25.41C282.81 25.09 282.12 24.6 281.54 23.94C280.96 23.26 280.67 22.35 280.67 21.21C280.67 20.25 280.93 19.38 281.45 18.6C281.99 17.8 282.77 17.17 283.79 16.71C284.83 16.25 286.06 16.02 287.48 16.02C289.58 16.02 291.23 16.54 292.43 17.58C293.65 18.62 294.35 20 294.53 21.72H289.79C289.71 21.14 289.45 20.68 289.01 20.34C288.59 20 288.03 19.83 287.33 19.83C286.73 19.83 286.27 19.95 285.95 20.19C285.63 20.41 285.47 20.72 285.47 21.12C285.47 21.6 285.72 21.96 286.22 22.2C286.74 22.44 287.54 22.68 288.62 22.92C289.86 23.24 290.87 23.56 291.65 23.88C292.43 24.18 293.11 24.68 293.69 25.38C294.29 26.06 294.6 26.98 294.62 28.14C294.62 29.12 294.34 30 293.78 30.78C293.24 31.54 292.45 32.14 291.41 32.58C290.39 33.02 289.2 33.24 287.84 33.24Z" fill="white"/>
</svg>
