<svg width="1244" height="64" viewBox="0 0 1244 64" fill="none" xmlns="http://www.w3.org/2000/svg">
<rect x="979" width="255" height="45" fill="#D2292D"/>
<rect x="344" width="295" height="45" fill="#1761B0"/>
<path d="M23.52 12.24V33H20.79V17.52L13.89 33H11.97L5.04 17.49V33H2.31V12.24H5.25L12.93 29.4L20.61 12.24H23.52ZM43.1498 24.15C43.1498 24.67 43.1198 25.22 43.0598 25.8H29.9198C30.0198 27.42 30.5698 28.69 31.5698 29.61C32.5898 30.51 33.8198 30.96 35.2598 30.96C36.4398 30.96 37.4198 30.69 38.1998 30.15C38.9998 29.59 39.5598 28.85 39.8798 27.93H42.8198C42.3798 29.51 41.4998 30.8 40.1798 31.8C38.8598 32.78 37.2198 33.27 35.2598 33.27C33.6998 33.27 32.2998 32.92 31.0598 32.22C29.8398 31.52 28.8798 30.53 28.1798 29.25C27.4798 27.95 27.1298 26.45 27.1298 24.75C27.1298 23.05 27.4698 21.56 28.1498 20.28C28.8298 19 29.7798 18.02 30.9998 17.34C32.2398 16.64 33.6598 16.29 35.2598 16.29C36.8198 16.29 38.1998 16.63 39.3998 17.31C40.5998 17.99 41.5198 18.93 42.1598 20.13C42.8198 21.31 43.1498 22.65 43.1498 24.15ZM40.3298 23.58C40.3298 22.54 40.0998 21.65 39.6398 20.91C39.1798 20.15 38.5498 19.58 37.7498 19.2C36.9698 18.8 36.0998 18.6 35.1398 18.6C33.7598 18.6 32.5798 19.04 31.5998 19.92C30.6398 20.8 30.0898 22.02 29.9498 23.58H40.3298ZM54.7634 16.26C56.7634 16.26 58.3834 16.87 59.6234 18.09C60.8634 19.29 61.4834 21.03 61.4834 23.31V33H58.7834V23.7C58.7834 22.06 58.3734 20.81 57.5534 19.95C56.7334 19.07 55.6134 18.63 54.1934 18.63C52.7534 18.63 51.6034 19.08 50.7434 19.98C49.9034 20.88 49.4834 22.19 49.4834 23.91V33H46.7534V16.56H49.4834V18.9C50.0234 18.06 50.7534 17.41 51.6734 16.95C52.6134 16.49 53.6434 16.26 54.7634 16.26ZM67.4128 13.89C66.8928 13.89 66.4528 13.71 66.0928 13.35C65.7528 12.99 65.5828 12.55 65.5828 12.03C65.5828 11.51 65.7528 11.07 66.0928 10.71C66.4528 10.35 66.8928 10.17 67.4128 10.17C67.9328 10.17 68.3628 10.35 68.7028 10.71C69.0628 11.07 69.2428 11.51 69.2428 12.03C69.2428 12.55 69.0628 12.99 68.7028 13.35C68.3628 13.71 67.9328 13.89 67.4128 13.89ZM68.7628 36.57C68.7628 38.03 68.3928 39.1 67.6528 39.78C66.9128 40.46 65.8328 40.8 64.4128 40.8H62.8228V38.49H63.9628C64.7228 38.49 65.2528 38.34 65.5528 38.04C65.8728 37.74 66.0328 37.23 66.0328 36.51V16.56H68.7628V36.57ZM72.3642 24.72C72.3642 23.04 72.7042 21.57 73.3842 20.31C74.0642 19.03 74.9942 18.04 76.1742 17.34C77.3742 16.64 78.7042 16.29 80.1642 16.29C81.6042 16.29 82.8542 16.6 83.9142 17.22C84.9742 17.84 85.7642 18.62 86.2842 19.56V16.56H89.0442V33H86.2842V29.94C85.7442 30.9 84.9342 31.7 83.8542 32.34C82.7942 32.96 81.5542 33.27 80.1342 33.27C78.6742 33.27 77.3542 32.91 76.1742 32.19C74.9942 31.47 74.0642 30.46 73.3842 29.16C72.7042 27.86 72.3642 26.38 72.3642 24.72ZM86.2842 24.75C86.2842 23.51 86.0342 22.43 85.5342 21.51C85.0342 20.59 84.3542 19.89 83.4942 19.41C82.6542 18.91 81.7242 18.66 80.7042 18.66C79.6842 18.66 78.7542 18.9 77.9142 19.38C77.0742 19.86 76.4042 20.56 75.9042 21.48C75.4042 22.4 75.1542 23.48 75.1542 24.72C75.1542 25.98 75.4042 27.08 75.9042 28.02C76.4042 28.94 77.0742 29.65 77.9142 30.15C78.7542 30.63 79.6842 30.87 80.7042 30.87C81.7242 30.87 82.6542 30.63 83.4942 30.15C84.3542 29.65 85.0342 28.94 85.5342 28.02C86.0342 27.08 86.2842 25.99 86.2842 24.75ZM92.6377 24.72C92.6377 23.04 92.9777 21.57 93.6577 20.31C94.3377 19.03 95.2677 18.04 96.4477 17.34C97.6477 16.64 98.9877 16.29 100.468 16.29C101.748 16.29 102.938 16.59 104.038 17.19C105.138 17.77 105.978 18.54 106.558 19.5V10.8H109.318V33H106.558V29.91C106.018 30.89 105.218 31.7 104.158 32.34C103.098 32.96 101.858 33.27 100.438 33.27C98.9777 33.27 97.6477 32.91 96.4477 32.19C95.2677 31.47 94.3377 30.46 93.6577 29.16C92.9777 27.86 92.6377 26.38 92.6377 24.72ZM106.558 24.75C106.558 23.51 106.308 22.43 105.808 21.51C105.308 20.59 104.628 19.89 103.768 19.41C102.928 18.91 101.998 18.66 100.978 18.66C99.9577 18.66 99.0277 18.9 98.1877 19.38C97.3477 19.86 96.6777 20.56 96.1777 21.48C95.6777 22.4 95.4277 23.48 95.4277 24.72C95.4277 25.98 95.6777 27.08 96.1777 28.02C96.6777 28.94 97.3477 29.65 98.1877 30.15C99.0277 30.63 99.9577 30.87 100.978 30.87C101.998 30.87 102.928 30.63 103.768 30.15C104.628 29.65 105.308 28.94 105.808 28.02C106.308 27.08 106.558 25.99 106.558 24.75ZM115.341 13.89C114.821 13.89 114.381 13.71 114.021 13.35C113.661 12.99 113.481 12.55 113.481 12.03C113.481 11.51 113.661 11.07 114.021 10.71C114.381 10.35 114.821 10.17 115.341 10.17C115.841 10.17 116.261 10.35 116.601 10.71C116.961 11.07 117.141 11.51 117.141 12.03C117.141 12.55 116.961 12.99 116.601 13.35C116.261 13.71 115.841 13.89 115.341 13.89ZM116.661 16.56V33H113.931V16.56H116.661ZM130.494 33L124.044 25.74V33H121.314V10.8H124.044V23.85L130.374 16.56H134.184L126.444 24.75L134.214 33H130.494ZM135.733 24.72C135.733 23.04 136.073 21.57 136.753 20.31C137.433 19.03 138.363 18.04 139.543 17.34C140.743 16.64 142.073 16.29 143.533 16.29C144.973 16.29 146.223 16.6 147.283 17.22C148.343 17.84 149.133 18.62 149.653 19.56V16.56H152.413V33H149.653V29.94C149.113 30.9 148.303 31.7 147.223 32.34C146.163 32.96 144.923 33.27 143.503 33.27C142.043 33.27 140.723 32.91 139.543 32.19C138.363 31.47 137.433 30.46 136.753 29.16C136.073 27.86 135.733 26.38 135.733 24.72ZM149.653 24.75C149.653 23.51 149.403 22.43 148.903 21.51C148.403 20.59 147.723 19.89 146.863 19.41C146.023 18.91 145.093 18.66 144.073 18.66C143.053 18.66 142.123 18.9 141.283 19.38C140.443 19.86 139.773 20.56 139.273 21.48C138.773 22.4 138.523 23.48 138.523 24.72C138.523 25.98 138.773 27.08 139.273 28.02C139.773 28.94 140.443 29.65 141.283 30.15C142.123 30.63 143.053 30.87 144.073 30.87C145.093 30.87 146.023 30.63 146.863 30.15C147.723 29.65 148.403 28.94 148.903 28.02C149.403 27.08 149.653 25.99 149.653 24.75ZM165.037 16.26C167.037 16.26 168.657 16.87 169.897 18.09C171.137 19.29 171.757 21.03 171.757 23.31V33H169.057V23.7C169.057 22.06 168.647 20.81 167.827 19.95C167.007 19.07 165.887 18.63 164.467 18.63C163.027 18.63 161.877 19.08 161.017 19.98C160.177 20.88 159.757 22.19 159.757 23.91V33H157.027V16.56H159.757V18.9C160.297 18.06 161.027 17.41 161.947 16.95C162.887 16.49 163.917 16.26 165.037 16.26ZM186.944 12.09V33H184.214V12.09H186.944ZM203.957 28.35H194.837L193.157 33H190.277L197.837 12.21H200.987L208.517 33H205.637L203.957 28.35ZM203.177 26.13L199.397 15.57L195.617 26.13H203.177ZM230.82 33L225.84 24.45H222.54V33H219.81V12.09H226.56C228.14 12.09 229.47 12.36 230.55 12.9C231.65 13.44 232.47 14.17 233.01 15.09C233.55 16.01 233.82 17.06 233.82 18.24C233.82 19.68 233.4 20.95 232.56 22.05C231.74 23.15 230.5 23.88 228.84 24.24L234.09 33H230.82ZM222.54 22.26H226.56C228.04 22.26 229.15 21.9 229.89 21.18C230.63 20.44 231 19.46 231 18.24C231 17 230.63 16.04 229.89 15.36C229.17 14.68 228.06 14.34 226.56 14.34H222.54V22.26ZM249.402 33L240.792 23.46V33H238.062V12.09H240.792V21.78L249.432 12.09H252.882L243.402 22.56L252.972 33H249.402ZM278.179 16.56L268.279 40.74H265.459L268.699 32.82L262.069 16.56H265.099L270.259 29.88L275.359 16.56H278.179ZM279.903 24.72C279.903 23.04 280.243 21.57 280.923 20.31C281.603 19.03 282.533 18.04 283.713 17.34C284.913 16.64 286.243 16.29 287.703 16.29C289.143 16.29 290.393 16.6 291.453 17.22C292.513 17.84 293.303 18.62 293.823 19.56V16.56H296.583V33H293.823V29.94C293.283 30.9 292.473 31.7 291.393 32.34C290.333 32.96 289.093 33.27 287.673 33.27C286.213 33.27 284.893 32.91 283.713 32.19C282.533 31.47 281.603 30.46 280.923 29.16C280.243 27.86 279.903 26.38 279.903 24.72ZM293.823 24.75C293.823 23.51 293.573 22.43 293.073 21.51C292.573 20.59 291.893 19.89 291.033 19.41C290.193 18.91 289.263 18.66 288.243 18.66C287.223 18.66 286.293 18.9 285.453 19.38C284.613 19.86 283.943 20.56 283.443 21.48C282.943 22.4 282.693 23.48 282.693 24.72C282.693 25.98 282.943 27.08 283.443 28.02C283.943 28.94 284.613 29.65 285.453 30.15C286.293 30.63 287.223 30.87 288.243 30.87C289.263 30.87 290.193 30.63 291.033 30.15C291.893 29.65 292.573 28.94 293.073 28.02C293.573 27.08 293.823 25.99 293.823 24.75ZM309.207 16.26C311.207 16.26 312.827 16.87 314.067 18.09C315.307 19.29 315.927 21.03 315.927 23.31V33H313.227V23.7C313.227 22.06 312.817 20.81 311.997 19.95C311.177 19.07 310.057 18.63 308.637 18.63C307.197 18.63 306.047 19.08 305.187 19.98C304.347 20.88 303.927 22.19 303.927 23.91V33H301.197V16.56H303.927V18.9C304.467 18.06 305.197 17.41 306.117 16.95C307.057 16.49 308.087 16.26 309.207 16.26ZM327.166 16.29C328.586 16.29 329.826 16.6 330.886 17.22C331.966 17.84 332.766 18.62 333.286 19.56V16.56H336.046V33.36C336.046 34.86 335.726 36.19 335.086 37.35C334.446 38.53 333.526 39.45 332.326 40.11C331.146 40.77 329.766 41.1 328.186 41.1C326.026 41.1 324.226 40.59 322.786 39.57C321.346 38.55 320.496 37.16 320.236 35.4H322.936C323.236 36.4 323.856 37.2 324.796 37.8C325.736 38.42 326.866 38.73 328.186 38.73C329.686 38.73 330.906 38.26 331.846 37.32C332.806 36.38 333.286 35.06 333.286 33.36V29.91C332.746 30.87 331.946 31.67 330.886 32.31C329.826 32.95 328.586 33.27 327.166 33.27C325.706 33.27 324.376 32.91 323.176 32.19C321.996 31.47 321.066 30.46 320.386 29.16C319.706 27.86 319.366 26.38 319.366 24.72C319.366 23.04 319.706 21.57 320.386 20.31C321.066 19.03 321.996 18.04 323.176 17.34C324.376 16.64 325.706 16.29 327.166 16.29ZM333.286 24.75C333.286 23.51 333.036 22.43 332.536 21.51C332.036 20.59 331.356 19.89 330.496 19.41C329.656 18.91 328.726 18.66 327.706 18.66C326.686 18.66 325.756 18.9 324.916 19.38C324.076 19.86 323.406 20.56 322.906 21.48C322.406 22.4 322.156 23.48 322.156 24.72C322.156 25.98 322.406 27.08 322.906 28.02C323.406 28.94 324.076 29.65 324.916 30.15C325.756 30.63 326.686 30.87 327.706 30.87C328.726 30.87 329.656 30.63 330.496 30.15C331.356 29.65 332.036 28.94 332.536 28.02C333.036 27.08 333.286 25.99 333.286 24.75ZM659.136 16.56V33H656.406V30.57C655.886 31.41 655.156 32.07 654.216 32.55C653.296 33.01 652.276 33.24 651.156 33.24C649.876 33.24 648.726 32.98 647.706 32.46C646.686 31.92 645.876 31.12 645.276 30.06C644.696 29 644.406 27.71 644.406 26.19V16.56H647.106V25.83C647.106 27.45 647.516 28.7 648.336 29.58C649.156 30.44 650.276 30.87 651.696 30.87C653.156 30.87 654.306 30.42 655.146 29.52C655.986 28.62 656.406 27.31 656.406 25.59V16.56H659.136ZM671.756 16.26C673.756 16.26 675.376 16.87 676.616 18.09C677.856 19.29 678.476 21.03 678.476 23.31V33H675.776V23.7C675.776 22.06 675.366 20.81 674.546 19.95C673.726 19.07 672.606 18.63 671.186 18.63C669.746 18.63 668.596 19.08 667.736 19.98C666.896 20.88 666.476 22.19 666.476 23.91V33H663.746V16.56H666.476V18.9C667.016 18.06 667.746 17.41 668.666 16.95C669.606 16.49 670.636 16.26 671.756 16.26ZM686.265 18.81V28.5C686.265 29.3 686.435 29.87 686.775 30.21C687.115 30.53 687.705 30.69 688.545 30.69H690.555V33H688.095C686.575 33 685.435 32.65 684.675 31.95C683.915 31.25 683.535 30.1 683.535 28.5V18.81H681.405V16.56H683.535V12.42H686.265V16.56H690.555V18.81H686.265ZM708.443 16.56V33H705.713V30.57C705.193 31.41 704.463 32.07 703.523 32.55C702.603 33.01 701.583 33.24 700.463 33.24C699.183 33.24 698.033 32.98 697.013 32.46C695.993 31.92 695.183 31.12 694.583 30.06C694.003 29 693.713 27.71 693.713 26.19V16.56H696.413V25.83C696.413 27.45 696.823 28.7 697.643 29.58C698.463 30.44 699.583 30.87 701.003 30.87C702.463 30.87 703.613 30.42 704.453 29.52C705.293 28.62 705.713 27.31 705.713 25.59V16.56H708.443ZM722.232 33L715.782 25.74V33H713.052V10.8H715.782V23.85L722.112 16.56H725.922L718.182 24.75L725.952 33H722.232ZM745.67 33L739.22 25.74V33H736.49V10.8H739.22V23.85L745.55 16.56H749.36L741.62 24.75L749.39 33H745.67ZM759.099 33.27C757.559 33.27 756.159 32.92 754.899 32.22C753.659 31.52 752.679 30.53 751.959 29.25C751.259 27.95 750.909 26.45 750.909 24.75C750.909 23.07 751.269 21.59 751.989 20.31C752.729 19.01 753.729 18.02 754.989 17.34C756.249 16.64 757.659 16.29 759.219 16.29C760.779 16.29 762.189 16.64 763.449 17.34C764.709 18.02 765.699 19 766.419 20.28C767.159 21.56 767.529 23.05 767.529 24.75C767.529 26.45 767.149 27.95 766.389 29.25C765.649 30.53 764.639 31.52 763.359 32.22C762.079 32.92 760.659 33.27 759.099 33.27ZM759.099 30.87C760.079 30.87 760.999 30.64 761.859 30.18C762.719 29.72 763.409 29.03 763.929 28.11C764.469 27.19 764.739 26.07 764.739 24.75C764.739 23.43 764.479 22.31 763.959 21.39C763.439 20.47 762.759 19.79 761.919 19.35C761.079 18.89 760.169 18.66 759.189 18.66C758.189 18.66 757.269 18.89 756.429 19.35C755.609 19.79 754.949 20.47 754.449 21.39C753.949 22.31 753.699 23.43 753.699 24.75C753.699 26.09 753.939 27.22 754.419 28.14C754.919 29.06 755.579 29.75 756.399 30.21C757.219 30.65 758.119 30.87 759.099 30.87ZM773.849 10.8V33H771.119V10.8H773.849ZM777.481 24.72C777.481 23.04 777.821 21.57 778.501 20.31C779.181 19.03 780.111 18.04 781.291 17.34C782.491 16.64 783.821 16.29 785.281 16.29C786.721 16.29 787.971 16.6 789.031 17.22C790.091 17.84 790.881 18.62 791.401 19.56V16.56H794.161V33H791.401V29.94C790.861 30.9 790.051 31.7 788.971 32.34C787.911 32.96 786.671 33.27 785.251 33.27C783.791 33.27 782.471 32.91 781.291 32.19C780.111 31.47 779.181 30.46 778.501 29.16C777.821 27.86 777.481 26.38 777.481 24.72ZM791.401 24.75C791.401 23.51 791.151 22.43 790.651 21.51C790.151 20.59 789.471 19.89 788.611 19.41C787.771 18.91 786.841 18.66 785.821 18.66C784.801 18.66 783.871 18.9 783.031 19.38C782.191 19.86 781.521 20.56 781.021 21.48C780.521 22.4 780.271 23.48 780.271 24.72C780.271 25.98 780.521 27.08 781.021 28.02C781.521 28.94 782.191 29.65 783.031 30.15C783.871 30.63 784.801 30.87 785.821 30.87C786.841 30.87 787.771 30.63 788.611 30.15C789.471 29.65 790.151 28.94 790.651 28.02C791.151 27.08 791.401 25.99 791.401 24.75ZM801.505 19.62C802.065 18.64 802.885 17.84 803.965 17.22C805.045 16.6 806.275 16.29 807.655 16.29C809.135 16.29 810.465 16.64 811.645 17.34C812.825 18.04 813.755 19.03 814.435 20.31C815.115 21.57 815.455 23.04 815.455 24.72C815.455 26.38 815.115 27.86 814.435 29.16C813.755 30.46 812.815 31.47 811.615 32.19C810.435 32.91 809.115 33.27 807.655 33.27C806.235 33.27 804.985 32.96 803.905 32.34C802.845 31.72 802.045 30.93 801.505 29.97V33H798.775V10.8H801.505V19.62ZM812.665 24.72C812.665 23.48 812.415 22.4 811.915 21.48C811.415 20.56 810.735 19.86 809.875 19.38C809.035 18.9 808.105 18.66 807.085 18.66C806.085 18.66 805.155 18.91 804.295 19.41C803.455 19.89 802.775 20.6 802.255 21.54C801.755 22.46 801.505 23.53 801.505 24.75C801.505 25.99 801.755 27.08 802.255 28.02C802.775 28.94 803.455 29.65 804.295 30.15C805.155 30.63 806.085 30.87 807.085 30.87C808.105 30.87 809.035 30.63 809.875 30.15C810.735 29.65 811.415 28.94 811.915 28.02C812.415 27.08 812.665 25.98 812.665 24.72ZM826.218 33.27C824.678 33.27 823.278 32.92 822.018 32.22C820.778 31.52 819.798 30.53 819.078 29.25C818.378 27.95 818.028 26.45 818.028 24.75C818.028 23.07 818.388 21.59 819.108 20.31C819.848 19.01 820.848 18.02 822.108 17.34C823.368 16.64 824.778 16.29 826.338 16.29C827.898 16.29 829.308 16.64 830.568 17.34C831.828 18.02 832.818 19 833.538 20.28C834.278 21.56 834.648 23.05 834.648 24.75C834.648 26.45 834.268 27.95 833.508 29.25C832.768 30.53 831.758 31.52 830.478 32.22C829.198 32.92 827.778 33.27 826.218 33.27ZM826.218 30.87C827.198 30.87 828.118 30.64 828.978 30.18C829.838 29.72 830.528 29.03 831.048 28.11C831.588 27.19 831.858 26.07 831.858 24.75C831.858 23.43 831.598 22.31 831.078 21.39C830.558 20.47 829.878 19.79 829.038 19.35C828.198 18.89 827.288 18.66 826.308 18.66C825.308 18.66 824.388 18.89 823.548 19.35C822.728 19.79 822.068 20.47 821.568 21.39C821.068 22.31 820.818 23.43 820.818 24.75C820.818 26.09 821.058 27.22 821.538 28.14C822.038 29.06 822.698 29.75 823.518 30.21C824.338 30.65 825.238 30.87 826.218 30.87ZM840.968 19.23C841.448 18.29 842.128 17.56 843.008 17.04C843.908 16.52 844.998 16.26 846.278 16.26V19.08H845.558C842.498 19.08 840.968 20.74 840.968 24.06V33H838.238V16.56H840.968V19.23ZM848.409 24.72C848.409 23.04 848.749 21.57 849.429 20.31C850.109 19.03 851.039 18.04 852.219 17.34C853.419 16.64 854.749 16.29 856.209 16.29C857.649 16.29 858.899 16.6 859.959 17.22C861.019 17.84 861.809 18.62 862.329 19.56V16.56H865.089V33H862.329V29.94C861.789 30.9 860.979 31.7 859.899 32.34C858.839 32.96 857.599 33.27 856.179 33.27C854.719 33.27 853.399 32.91 852.219 32.19C851.039 31.47 850.109 30.46 849.429 29.16C848.749 27.86 848.409 26.38 848.409 24.72ZM862.329 24.75C862.329 23.51 862.079 22.43 861.579 21.51C861.079 20.59 860.399 19.89 859.539 19.41C858.699 18.91 857.769 18.66 856.749 18.66C855.729 18.66 854.799 18.9 853.959 19.38C853.119 19.86 852.449 20.56 851.949 21.48C851.449 22.4 851.199 23.48 851.199 24.72C851.199 25.98 851.449 27.08 851.949 28.02C852.449 28.94 853.119 29.65 853.959 30.15C854.799 30.63 855.729 30.87 856.749 30.87C857.769 30.87 858.699 30.63 859.539 30.15C860.399 29.65 861.079 28.94 861.579 28.02C862.079 27.08 862.329 25.99 862.329 24.75ZM875.523 33.27C874.263 33.27 873.133 33.06 872.133 32.64C871.133 32.2 870.343 31.6 869.763 30.84C869.183 30.06 868.863 29.17 868.803 28.17H871.623C871.703 28.99 872.083 29.66 872.763 30.18C873.463 30.7 874.373 30.96 875.493 30.96C876.533 30.96 877.353 30.73 877.953 30.27C878.553 29.81 878.853 29.23 878.853 28.53C878.853 27.81 878.533 27.28 877.893 26.94C877.253 26.58 876.263 26.23 874.923 25.89C873.703 25.57 872.703 25.25 871.923 24.93C871.163 24.59 870.503 24.1 869.943 23.46C869.403 22.8 869.133 21.94 869.133 20.88C869.133 20.04 869.383 19.27 869.883 18.57C870.383 17.87 871.093 17.32 872.013 16.92C872.933 16.5 873.983 16.29 875.163 16.29C876.983 16.29 878.453 16.75 879.573 17.67C880.693 18.59 881.293 19.85 881.373 21.45H878.643C878.583 20.59 878.233 19.9 877.593 19.38C876.973 18.86 876.133 18.6 875.073 18.6C874.093 18.6 873.313 18.81 872.733 19.23C872.153 19.65 871.863 20.2 871.863 20.88C871.863 21.42 872.033 21.87 872.373 22.23C872.733 22.57 873.173 22.85 873.693 23.07C874.233 23.27 874.973 23.5 875.913 23.76C877.093 24.08 878.053 24.4 878.793 24.72C879.533 25.02 880.163 25.48 880.683 26.1C881.223 26.72 881.503 27.53 881.523 28.53C881.523 29.43 881.273 30.24 880.773 30.96C880.273 31.68 879.563 32.25 878.643 32.67C877.743 33.07 876.703 33.27 875.523 33.27ZM886.786 13.89C886.266 13.89 885.826 13.71 885.466 13.35C885.106 12.99 884.926 12.55 884.926 12.03C884.926 11.51 885.106 11.07 885.466 10.71C885.826 10.35 886.266 10.17 886.786 10.17C887.286 10.17 887.706 10.35 888.046 10.71C888.406 11.07 888.586 11.51 888.586 12.03C888.586 12.55 888.406 12.99 888.046 13.35C887.706 13.71 887.286 13.89 886.786 13.89ZM888.106 16.56V33H885.376V16.56H888.106ZM914.917 16.56L905.017 40.74H902.197L905.437 32.82L898.807 16.56H901.837L906.997 29.88L912.097 16.56H914.917ZM916.642 24.72C916.642 23.04 916.982 21.57 917.662 20.31C918.342 19.03 919.272 18.04 920.452 17.34C921.652 16.64 922.982 16.29 924.442 16.29C925.882 16.29 927.132 16.6 928.192 17.22C929.252 17.84 930.042 18.62 930.562 19.56V16.56H933.322V33H930.562V29.94C930.022 30.9 929.212 31.7 928.132 32.34C927.072 32.96 925.832 33.27 924.412 33.27C922.952 33.27 921.632 32.91 920.452 32.19C919.272 31.47 918.342 30.46 917.662 29.16C916.982 27.86 916.642 26.38 916.642 24.72ZM930.562 24.75C930.562 23.51 930.312 22.43 929.812 21.51C929.312 20.59 928.632 19.89 927.772 19.41C926.932 18.91 926.002 18.66 924.982 18.66C923.962 18.66 923.032 18.9 922.192 19.38C921.352 19.86 920.682 20.56 920.182 21.48C919.682 22.4 919.432 23.48 919.432 24.72C919.432 25.98 919.682 27.08 920.182 28.02C920.682 28.94 921.352 29.65 922.192 30.15C923.032 30.63 923.962 30.87 924.982 30.87C926.002 30.87 926.932 30.63 927.772 30.15C928.632 29.65 929.312 28.94 929.812 28.02C930.312 27.08 930.562 25.99 930.562 24.75ZM945.945 16.26C947.945 16.26 949.565 16.87 950.805 18.09C952.045 19.29 952.665 21.03 952.665 23.31V33H949.965V23.7C949.965 22.06 949.555 20.81 948.735 19.95C947.915 19.07 946.795 18.63 945.375 18.63C943.935 18.63 942.785 19.08 941.925 19.98C941.085 20.88 940.665 22.19 940.665 23.91V33H937.935V16.56H940.665V18.9C941.205 18.06 941.935 17.41 942.855 16.95C943.795 16.49 944.825 16.26 945.945 16.26ZM963.904 16.29C965.324 16.29 966.564 16.6 967.624 17.22C968.704 17.84 969.504 18.62 970.024 19.56V16.56H972.784V33.36C972.784 34.86 972.464 36.19 971.824 37.35C971.184 38.53 970.264 39.45 969.064 40.11C967.884 40.77 966.504 41.1 964.924 41.1C962.764 41.1 960.964 40.59 959.524 39.57C958.084 38.55 957.234 37.16 956.974 35.4H959.674C959.974 36.4 960.594 37.2 961.534 37.8C962.474 38.42 963.604 38.73 964.924 38.73C966.424 38.73 967.644 38.26 968.584 37.32C969.544 36.38 970.024 35.06 970.024 33.36V29.91C969.484 30.87 968.684 31.67 967.624 32.31C966.564 32.95 965.324 33.27 963.904 33.27C962.444 33.27 961.114 32.91 959.914 32.19C958.734 31.47 957.804 30.46 957.124 29.16C956.444 27.86 956.104 26.38 956.104 24.72C956.104 23.04 956.444 21.57 957.124 20.31C957.804 19.03 958.734 18.04 959.914 17.34C961.114 16.64 962.444 16.29 963.904 16.29ZM970.024 24.75C970.024 23.51 969.774 22.43 969.274 21.51C968.774 20.59 968.094 19.89 967.234 19.41C966.394 18.91 965.464 18.66 964.444 18.66C963.424 18.66 962.494 18.9 961.654 19.38C960.814 19.86 960.144 20.56 959.644 21.48C959.144 22.4 958.894 23.48 958.894 24.72C958.894 25.98 959.144 27.08 959.644 28.02C960.144 28.94 960.814 29.65 961.654 30.15C962.494 30.63 963.424 30.87 964.444 30.87C965.464 30.87 966.394 30.63 967.234 30.15C968.094 29.65 968.774 28.94 969.274 28.02C969.774 27.08 970.024 25.99 970.024 24.75Z" fill="black"/>
<path d="M367.798 19.86L366.958 23.79H370.558V28.41H365.968L364.978 33H360.178L361.168 28.41H356.188L355.198 33H350.398L351.388 28.41H346.948V23.79H352.378L353.218 19.86H348.868V15.24H354.178L355.138 10.8H359.938L358.978 15.24H363.958L364.918 10.8H369.718L368.758 15.24H372.478V19.86H367.798ZM362.998 19.86H358.018L357.178 23.79H362.158L362.998 19.86ZM394.177 33H389.047L380.467 20.01V33H375.337V11.94H380.467L389.047 24.99V11.94H394.177V33ZM414.995 16.26L404.495 40.95H398.975L402.815 32.43L396.005 16.26H401.735L405.605 26.73L409.445 16.26H414.995ZM415.83 24.6C415.83 22.88 416.15 21.37 416.79 20.07C417.45 18.77 418.34 17.77 419.46 17.07C420.58 16.37 421.83 16.02 423.21 16.02C424.39 16.02 425.42 16.26 426.3 16.74C427.2 17.22 427.89 17.85 428.37 18.63V16.26H433.5V33H428.37V30.63C427.87 31.41 427.17 32.04 426.27 32.52C425.39 33 424.36 33.24 423.18 33.24C421.82 33.24 420.58 32.89 419.46 32.19C418.34 31.47 417.45 30.46 416.79 29.16C416.15 27.84 415.83 26.32 415.83 24.6ZM428.37 24.63C428.37 23.35 428.01 22.34 427.29 21.6C426.59 20.86 425.73 20.49 424.71 20.49C423.69 20.49 422.82 20.86 422.1 21.6C421.4 22.32 421.05 23.32 421.05 24.6C421.05 25.88 421.4 26.9 422.1 27.66C422.82 28.4 423.69 28.77 424.71 28.77C425.73 28.77 426.59 28.4 427.29 27.66C428.01 26.92 428.37 25.91 428.37 24.63ZM458.572 16.08C460.652 16.08 462.302 16.71 463.522 17.97C464.762 19.23 465.382 20.98 465.382 23.22V33H460.282V23.91C460.282 22.83 459.992 22 459.412 21.42C458.852 20.82 458.072 20.52 457.072 20.52C456.072 20.52 455.282 20.82 454.702 21.42C454.142 22 453.862 22.83 453.862 23.91V33H448.762V23.91C448.762 22.83 448.472 22 447.892 21.42C447.332 20.82 446.552 20.52 445.552 20.52C444.552 20.52 443.762 20.82 443.182 21.42C442.622 22 442.342 22.83 442.342 23.91V33H437.212V16.26H442.342V18.36C442.862 17.66 443.542 17.11 444.382 16.71C445.222 16.29 446.172 16.08 447.232 16.08C448.492 16.08 449.612 16.35 450.592 16.89C451.592 17.43 452.372 18.2 452.932 19.2C453.512 18.28 454.302 17.53 455.302 16.95C456.302 16.37 457.392 16.08 458.572 16.08ZM474.099 18.63C474.579 17.85 475.269 17.22 476.169 16.74C477.069 16.26 478.099 16.02 479.259 16.02C480.639 16.02 481.889 16.37 483.009 17.07C484.129 17.77 485.009 18.77 485.649 20.07C486.309 21.37 486.639 22.88 486.639 24.6C486.639 26.32 486.309 27.84 485.649 29.16C485.009 30.46 484.129 31.47 483.009 32.19C481.889 32.89 480.639 33.24 479.259 33.24C478.079 33.24 477.049 33.01 476.169 32.55C475.289 32.07 474.599 31.44 474.099 30.66V33H468.969V10.8H474.099V18.63ZM481.419 24.6C481.419 23.32 481.059 22.32 480.339 21.6C479.639 20.86 478.769 20.49 477.729 20.49C476.709 20.49 475.839 20.86 475.119 21.6C474.419 22.34 474.069 23.35 474.069 24.63C474.069 25.91 474.419 26.92 475.119 27.66C475.839 28.4 476.709 28.77 477.729 28.77C478.749 28.77 479.619 28.4 480.339 27.66C481.059 26.9 481.419 25.88 481.419 24.6ZM505.861 16.26V33H500.731V30.72C500.211 31.46 499.501 32.06 498.601 32.52C497.721 32.96 496.741 33.18 495.661 33.18C494.381 33.18 493.251 32.9 492.271 32.34C491.291 31.76 490.531 30.93 489.991 29.85C489.451 28.77 489.181 27.5 489.181 26.04V16.26H494.281V25.35C494.281 26.47 494.571 27.34 495.151 27.96C495.731 28.58 496.511 28.89 497.491 28.89C498.491 28.89 499.281 28.58 499.861 27.96C500.441 27.34 500.731 26.47 500.731 25.35V16.26H505.861ZM519.746 16.08C521.706 16.08 523.266 16.72 524.426 18C525.606 19.26 526.196 21 526.196 23.22V33H521.096V23.91C521.096 22.79 520.806 21.92 520.226 21.3C519.646 20.68 518.866 20.37 517.886 20.37C516.906 20.37 516.126 20.68 515.546 21.3C514.966 21.92 514.676 22.79 514.676 23.91V33H509.546V16.26H514.676V18.48C515.196 17.74 515.896 17.16 516.776 16.74C517.656 16.3 518.646 16.08 519.746 16.08ZM536.12 16.02C537.3 16.02 538.33 16.26 539.21 16.74C540.11 17.22 540.8 17.85 541.28 18.63V16.26H546.41V32.97C546.41 34.51 546.1 35.9 545.48 37.14C544.88 38.4 543.95 39.4 542.69 40.14C541.45 40.88 539.9 41.25 538.04 41.25C535.56 41.25 533.55 40.66 532.01 39.48C530.47 38.32 529.59 36.74 529.37 34.74H534.44C534.6 35.38 534.98 35.88 535.58 36.24C536.18 36.62 536.92 36.81 537.8 36.81C538.86 36.81 539.7 36.5 540.32 35.88C540.96 35.28 541.28 34.31 541.28 32.97V30.6C540.78 31.38 540.09 32.02 539.21 32.52C538.33 33 537.3 33.24 536.12 33.24C534.74 33.24 533.49 32.89 532.37 32.19C531.25 31.47 530.36 30.46 529.7 29.16C529.06 27.84 528.74 26.32 528.74 24.6C528.74 22.88 529.06 21.37 529.7 20.07C530.36 18.77 531.25 17.77 532.37 17.07C533.49 16.37 534.74 16.02 536.12 16.02ZM541.28 24.63C541.28 23.35 540.92 22.34 540.2 21.6C539.5 20.86 538.64 20.49 537.62 20.49C536.6 20.49 535.73 20.86 535.01 21.6C534.31 22.32 533.96 23.32 533.96 24.6C533.96 25.88 534.31 26.9 535.01 27.66C535.73 28.4 536.6 28.77 537.62 28.77C538.64 28.77 539.5 28.4 540.2 27.66C540.92 26.92 541.28 25.91 541.28 24.63ZM565.272 11.94V16.05H559.692V33H554.562V16.05H548.982V11.94H565.272ZM583.626 24.36C583.626 24.84 583.596 25.34 583.536 25.86H571.926C572.006 26.9 572.336 27.7 572.916 28.26C573.516 28.8 574.246 29.07 575.106 29.07C576.386 29.07 577.276 28.53 577.776 27.45H583.236C582.956 28.55 582.446 29.54 581.706 30.42C580.986 31.3 580.076 31.99 578.976 32.49C577.876 32.99 576.646 33.24 575.286 33.24C573.646 33.24 572.186 32.89 570.906 32.19C569.626 31.49 568.626 30.49 567.906 29.19C567.186 27.89 566.826 26.37 566.826 24.63C566.826 22.89 567.176 21.37 567.876 20.07C568.596 18.77 569.596 17.77 570.876 17.07C572.156 16.37 573.626 16.02 575.286 16.02C576.906 16.02 578.346 16.36 579.606 17.04C580.866 17.72 581.846 18.69 582.546 19.95C583.266 21.21 583.626 22.68 583.626 24.36ZM578.376 23.01C578.376 22.13 578.076 21.43 577.476 20.91C576.876 20.39 576.126 20.13 575.226 20.13C574.366 20.13 573.636 20.38 573.036 20.88C572.456 21.38 572.096 22.09 571.956 23.01H578.376ZM591.463 19.05C592.063 18.13 592.813 17.41 593.713 16.89C594.613 16.35 595.613 16.08 596.713 16.08V21.51H595.303C594.023 21.51 593.063 21.79 592.423 22.35C591.783 22.89 591.463 23.85 591.463 25.23V33H586.333V16.26H591.463V19.05ZM615.695 16.26V33H610.565V30.72C610.045 31.46 609.335 32.06 608.435 32.52C607.555 32.96 606.575 33.18 605.495 33.18C604.215 33.18 603.085 32.9 602.105 32.34C601.125 31.76 600.365 30.93 599.825 29.85C599.285 28.77 599.015 27.5 599.015 26.04V16.26H604.115V25.35C604.115 26.47 604.405 27.34 604.985 27.96C605.565 28.58 606.345 28.89 607.325 28.89C608.325 28.89 609.115 28.58 609.695 27.96C610.275 27.34 610.565 26.47 610.565 25.35V16.26H615.695ZM626.19 33.24C624.73 33.24 623.43 32.99 622.29 32.49C621.15 31.99 620.25 31.31 619.59 30.45C618.93 29.57 618.56 28.59 618.48 27.51H623.55C623.61 28.09 623.88 28.56 624.36 28.92C624.84 29.28 625.43 29.46 626.13 29.46C626.77 29.46 627.26 29.34 627.6 29.1C627.96 28.84 628.14 28.51 628.14 28.11C628.14 27.63 627.89 27.28 627.39 27.06C626.89 26.82 626.08 26.56 624.96 26.28C623.76 26 622.76 25.71 621.96 25.41C621.16 25.09 620.47 24.6 619.89 23.94C619.31 23.26 619.02 22.35 619.02 21.21C619.02 20.25 619.28 19.38 619.8 18.6C620.34 17.8 621.12 17.17 622.14 16.71C623.18 16.25 624.41 16.02 625.83 16.02C627.93 16.02 629.58 16.54 630.78 17.58C632 18.62 632.7 20 632.88 21.72H628.14C628.06 21.14 627.8 20.68 627.36 20.34C626.94 20 626.38 19.83 625.68 19.83C625.08 19.83 624.62 19.95 624.3 20.19C623.98 20.41 623.82 20.72 623.82 21.12C623.82 21.6 624.07 21.96 624.57 22.2C625.09 22.44 625.89 22.68 626.97 22.92C628.21 23.24 629.22 23.56 630 23.88C630.78 24.18 631.46 24.68 632.04 25.38C632.64 26.06 632.95 26.98 632.97 28.14C632.97 29.12 632.69 30 632.13 30.78C631.59 31.54 630.8 32.14 629.76 32.58C628.74 33.02 627.55 33.24 626.19 33.24ZM1004.54 19.86L1003.7 23.79H1007.3V28.41H1002.71L1001.72 33H996.916L997.906 28.41H992.926L991.936 33H987.136L988.126 28.41H983.686V23.79H989.116L989.956 19.86H985.606V15.24H990.916L991.876 10.8H996.676L995.716 15.24H1000.7L1001.66 10.8H1006.46L1005.5 15.24H1009.22V19.86H1004.54ZM999.736 19.86H994.756L993.916 23.79H998.896L999.736 19.86ZM1035.92 11.94V33H1030.79V20.37L1026.08 33H1021.94L1017.2 20.34V33H1012.07V11.94H1018.13L1024.04 26.52L1029.89 11.94H1035.92ZM1038.59 24.6C1038.59 22.88 1038.91 21.37 1039.55 20.07C1040.21 18.77 1041.1 17.77 1042.22 17.07C1043.34 16.37 1044.59 16.02 1045.97 16.02C1047.15 16.02 1048.18 16.26 1049.06 16.74C1049.96 17.22 1050.65 17.85 1051.13 18.63V16.26H1056.26V33H1051.13V30.63C1050.63 31.41 1049.93 32.04 1049.03 32.52C1048.15 33 1047.12 33.24 1045.94 33.24C1044.58 33.24 1043.34 32.89 1042.22 32.19C1041.1 31.47 1040.21 30.46 1039.55 29.16C1038.91 27.84 1038.59 26.32 1038.59 24.6ZM1051.13 24.63C1051.13 23.35 1050.77 22.34 1050.05 21.6C1049.35 20.86 1048.49 20.49 1047.47 20.49C1046.45 20.49 1045.58 20.86 1044.86 21.6C1044.16 22.32 1043.81 23.32 1043.81 24.6C1043.81 25.88 1044.16 26.9 1044.86 27.66C1045.58 28.4 1046.45 28.77 1047.47 28.77C1048.49 28.77 1049.35 28.4 1050.05 27.66C1050.77 26.92 1051.13 25.91 1051.13 24.63ZM1066.79 33.24C1065.33 33.24 1064.03 32.99 1062.89 32.49C1061.75 31.99 1060.85 31.31 1060.19 30.45C1059.53 29.57 1059.16 28.59 1059.08 27.51H1064.15C1064.21 28.09 1064.48 28.56 1064.96 28.92C1065.44 29.28 1066.03 29.46 1066.73 29.46C1067.37 29.46 1067.86 29.34 1068.2 29.1C1068.56 28.84 1068.74 28.51 1068.74 28.11C1068.74 27.63 1068.49 27.28 1067.99 27.06C1067.49 26.82 1066.68 26.56 1065.56 26.28C1064.36 26 1063.36 25.71 1062.56 25.41C1061.76 25.09 1061.07 24.6 1060.49 23.94C1059.91 23.26 1059.62 22.35 1059.62 21.21C1059.62 20.25 1059.88 19.38 1060.4 18.6C1060.94 17.8 1061.72 17.17 1062.74 16.71C1063.78 16.25 1065.01 16.02 1066.43 16.02C1068.53 16.02 1070.18 16.54 1071.38 17.58C1072.6 18.62 1073.3 20 1073.48 21.72H1068.74C1068.66 21.14 1068.4 20.68 1067.96 20.34C1067.54 20 1066.98 19.83 1066.28 19.83C1065.68 19.83 1065.22 19.95 1064.9 20.19C1064.58 20.41 1064.42 20.72 1064.42 21.12C1064.42 21.6 1064.67 21.96 1065.17 22.2C1065.69 22.44 1066.49 22.68 1067.57 22.92C1068.81 23.24 1069.82 23.56 1070.6 23.88C1071.38 24.18 1072.06 24.68 1072.64 25.38C1073.24 26.06 1073.55 26.98 1073.57 28.14C1073.57 29.12 1073.29 30 1072.73 30.78C1072.19 31.54 1071.4 32.14 1070.36 32.58C1069.34 33.02 1068.15 33.24 1066.79 33.24ZM1093.23 16.26V33H1088.1V30.72C1087.58 31.46 1086.87 32.06 1085.97 32.52C1085.09 32.96 1084.11 33.18 1083.03 33.18C1081.75 33.18 1080.62 32.9 1079.64 32.34C1078.66 31.76 1077.9 30.93 1077.36 29.85C1076.82 28.77 1076.55 27.5 1076.55 26.04V16.26H1081.65V25.35C1081.65 26.47 1081.94 27.34 1082.52 27.96C1083.1 28.58 1083.88 28.89 1084.86 28.89C1085.86 28.89 1086.65 28.58 1087.23 27.96C1087.81 27.34 1088.1 26.47 1088.1 25.35V16.26H1093.23ZM1107.15 33L1102.05 25.98V33H1096.92V10.8H1102.05V23.07L1107.12 16.26H1113.45L1106.49 24.66L1113.51 33H1107.15ZM1128.21 22.2C1129.43 22.46 1130.41 23.07 1131.15 24.03C1131.89 24.97 1132.26 26.05 1132.26 27.27C1132.26 29.03 1131.64 30.43 1130.4 31.47C1129.18 32.49 1127.47 33 1125.27 33H1115.46V11.94H1124.94C1127.08 11.94 1128.75 12.43 1129.95 13.41C1131.17 14.39 1131.78 15.72 1131.78 17.4C1131.78 18.64 1131.45 19.67 1130.79 20.49C1130.15 21.31 1129.29 21.88 1128.21 22.2ZM1120.59 20.46H1123.95C1124.79 20.46 1125.43 20.28 1125.87 19.92C1126.33 19.54 1126.56 18.99 1126.56 18.27C1126.56 17.55 1126.33 17 1125.87 16.62C1125.43 16.24 1124.79 16.05 1123.95 16.05H1120.59V20.46ZM1124.37 28.86C1125.23 28.86 1125.89 28.67 1126.35 28.29C1126.83 27.89 1127.07 27.32 1127.07 26.58C1127.07 25.84 1126.82 25.26 1126.32 24.84C1125.84 24.42 1125.17 24.21 1124.31 24.21H1120.59V28.86H1124.37ZM1134.22 24.6C1134.22 22.88 1134.54 21.37 1135.18 20.07C1135.84 18.77 1136.73 17.77 1137.85 17.07C1138.97 16.37 1140.22 16.02 1141.6 16.02C1142.78 16.02 1143.81 16.26 1144.69 16.74C1145.59 17.22 1146.28 17.85 1146.76 18.63V16.26H1151.89V33H1146.76V30.63C1146.26 31.41 1145.56 32.04 1144.66 32.52C1143.78 33 1142.75 33.24 1141.57 33.24C1140.21 33.24 1138.97 32.89 1137.85 32.19C1136.73 31.47 1135.84 30.46 1135.18 29.16C1134.54 27.84 1134.22 26.32 1134.22 24.6ZM1146.76 24.63C1146.76 23.35 1146.4 22.34 1145.68 21.6C1144.98 20.86 1144.12 20.49 1143.1 20.49C1142.08 20.49 1141.21 20.86 1140.49 21.6C1139.79 22.32 1139.44 23.32 1139.44 24.6C1139.44 25.88 1139.79 26.9 1140.49 27.66C1141.21 28.4 1142.08 28.77 1143.1 28.77C1144.12 28.77 1144.98 28.4 1145.68 27.66C1146.4 26.92 1146.76 25.91 1146.76 24.63ZM1160.73 19.05C1161.33 18.13 1162.08 17.41 1162.98 16.89C1163.88 16.35 1164.88 16.08 1165.98 16.08V21.51H1164.57C1163.29 21.51 1162.33 21.79 1161.69 22.35C1161.05 22.89 1160.73 23.85 1160.73 25.23V33H1155.6V16.26H1160.73V19.05ZM1167.41 24.6C1167.41 22.88 1167.73 21.37 1168.37 20.07C1169.03 18.77 1169.92 17.77 1171.04 17.07C1172.16 16.37 1173.41 16.02 1174.79 16.02C1175.97 16.02 1177 16.26 1177.88 16.74C1178.78 17.22 1179.47 17.85 1179.95 18.63V16.26H1185.08V33H1179.95V30.63C1179.45 31.41 1178.75 32.04 1177.85 32.52C1176.97 33 1175.94 33.24 1174.76 33.24C1173.4 33.24 1172.16 32.89 1171.04 32.19C1169.92 31.47 1169.03 30.46 1168.37 29.16C1167.73 27.84 1167.41 26.32 1167.41 24.6ZM1179.95 24.63C1179.95 23.35 1179.59 22.34 1178.87 21.6C1178.17 20.86 1177.31 20.49 1176.29 20.49C1175.27 20.49 1174.4 20.86 1173.68 21.6C1172.98 22.32 1172.63 23.32 1172.63 24.6C1172.63 25.88 1172.98 26.9 1173.68 27.66C1174.4 28.4 1175.27 28.77 1176.29 28.77C1177.31 28.77 1178.17 28.4 1178.87 27.66C1179.59 26.92 1179.95 25.91 1179.95 24.63ZM1198.99 16.08C1200.95 16.08 1202.51 16.72 1203.67 18C1204.85 19.26 1205.44 21 1205.44 23.22V33H1200.34V23.91C1200.34 22.79 1200.05 21.92 1199.47 21.3C1198.89 20.68 1198.11 20.37 1197.13 20.37C1196.15 20.37 1195.37 20.68 1194.79 21.3C1194.21 21.92 1193.92 22.79 1193.92 23.91V33H1188.79V16.26H1193.92V18.48C1194.44 17.74 1195.14 17.16 1196.02 16.74C1196.9 16.3 1197.89 16.08 1198.99 16.08ZM1215.37 16.02C1216.55 16.02 1217.58 16.26 1218.46 16.74C1219.36 17.22 1220.05 17.85 1220.53 18.63V16.26H1225.66V32.97C1225.66 34.51 1225.35 35.9 1224.73 37.14C1224.13 38.4 1223.2 39.4 1221.94 40.14C1220.7 40.88 1219.15 41.25 1217.29 41.25C1214.81 41.25 1212.8 40.66 1211.26 39.48C1209.72 38.32 1208.84 36.74 1208.62 34.74H1213.69C1213.85 35.38 1214.23 35.88 1214.83 36.24C1215.43 36.62 1216.17 36.81 1217.05 36.81C1218.11 36.81 1218.95 36.5 1219.57 35.88C1220.21 35.28 1220.53 34.31 1220.53 32.97V30.6C1220.03 31.38 1219.34 32.02 1218.46 32.52C1217.58 33 1216.55 33.24 1215.37 33.24C1213.99 33.24 1212.74 32.89 1211.62 32.19C1210.5 31.47 1209.61 30.46 1208.95 29.16C1208.31 27.84 1207.99 26.32 1207.99 24.6C1207.99 22.88 1208.31 21.37 1208.95 20.07C1209.61 18.77 1210.5 17.77 1211.62 17.07C1212.74 16.37 1213.99 16.02 1215.37 16.02ZM1220.53 24.63C1220.53 23.35 1220.17 22.34 1219.45 21.6C1218.75 20.86 1217.89 20.49 1216.87 20.49C1215.85 20.49 1214.98 20.86 1214.26 21.6C1213.56 22.32 1213.21 23.32 1213.21 24.6C1213.21 25.88 1213.56 26.9 1214.26 27.66C1214.98 28.4 1215.85 28.77 1216.87 28.77C1217.89 28.77 1218.75 28.4 1219.45 27.66C1220.17 26.92 1220.53 25.91 1220.53 24.63Z" fill="white"/>
</svg>
