<svg width="262" height="45" viewBox="0 0 262 45" fill="none" xmlns="http://www.w3.org/2000/svg">
<rect width="255" height="45" fill="#D2292D"/>
<path d="M29.448 19.86L28.608 23.79H32.208V28.41H27.618L26.628 33H21.828L22.818 28.41H17.838L16.848 33H12.048L13.038 28.41H8.59805V23.79H14.028L14.868 19.86H10.518V15.24H15.828L16.788 10.8H21.588L20.628 15.24H25.608L26.568 10.8H31.368L30.408 15.24H34.128V19.86H29.448ZM24.648 19.86H19.668L18.828 23.79H23.808L24.648 19.86ZM60.837 11.94V33H55.707V20.37L50.997 33H46.857L42.117 20.34V33H36.987V11.94H43.047L48.957 26.52L54.807 11.94H60.837ZM63.506 24.6C63.506 22.88 63.826 21.37 64.466 20.07C65.126 18.77 66.016 17.77 67.136 17.07C68.256 16.37 69.506 16.02 70.886 16.02C72.066 16.02 73.096 16.26 73.976 16.74C74.876 17.22 75.566 17.85 76.046 18.63V16.26H81.176V33H76.046V30.63C75.546 31.41 74.846 32.04 73.946 32.52C73.066 33 72.036 33.24 70.856 33.24C69.496 33.24 68.256 32.89 67.136 32.19C66.016 31.47 65.126 30.46 64.466 29.16C63.826 27.84 63.506 26.32 63.506 24.6ZM76.046 24.63C76.046 23.35 75.686 22.34 74.966 21.6C74.266 20.86 73.406 20.49 72.386 20.49C71.366 20.49 70.496 20.86 69.776 21.6C69.076 22.32 68.726 23.32 68.726 24.6C68.726 25.88 69.076 26.9 69.776 27.66C70.496 28.4 71.366 28.77 72.386 28.77C73.406 28.77 74.266 28.4 74.966 27.66C75.686 26.92 76.046 25.91 76.046 24.63ZM91.6973 33.24C90.2373 33.24 88.9373 32.99 87.7973 32.49C86.6573 31.99 85.7573 31.31 85.0973 30.45C84.4373 29.57 84.0673 28.59 83.9873 27.51H89.0573C89.1173 28.09 89.3873 28.56 89.8673 28.92C90.3473 29.28 90.9373 29.46 91.6373 29.46C92.2773 29.46 92.7673 29.34 93.1073 29.1C93.4673 28.84 93.6473 28.51 93.6473 28.11C93.6473 27.63 93.3973 27.28 92.8973 27.06C92.3973 26.82 91.5873 26.56 90.4673 26.28C89.2673 26 88.2673 25.71 87.4673 25.41C86.6673 25.09 85.9773 24.6 85.3973 23.94C84.8173 23.26 84.5273 22.35 84.5273 21.21C84.5273 20.25 84.7873 19.38 85.3073 18.6C85.8473 17.8 86.6273 17.17 87.6473 16.71C88.6873 16.25 89.9173 16.02 91.3373 16.02C93.4373 16.02 95.0873 16.54 96.2873 17.58C97.5073 18.62 98.2073 20 98.3873 21.72H93.6473C93.5673 21.14 93.3073 20.68 92.8673 20.34C92.4473 20 91.8873 19.83 91.1873 19.83C90.5873 19.83 90.1273 19.95 89.8073 20.19C89.4873 20.41 89.3273 20.72 89.3273 21.12C89.3273 21.6 89.5773 21.96 90.0773 22.2C90.5973 22.44 91.3973 22.68 92.4773 22.92C93.7173 23.24 94.7273 23.56 95.5073 23.88C96.2873 24.18 96.9673 24.68 97.5473 25.38C98.1473 26.06 98.4573 26.98 98.4773 28.14C98.4773 29.12 98.1973 30 97.6373 30.78C97.0973 31.54 96.3073 32.14 95.2673 32.58C94.2473 33.02 93.0573 33.24 91.6973 33.24ZM118.146 16.26V33H113.016V30.72C112.496 31.46 111.786 32.06 110.886 32.52C110.006 32.96 109.026 33.18 107.946 33.18C106.666 33.18 105.536 32.9 104.556 32.34C103.576 31.76 102.816 30.93 102.276 29.85C101.736 28.77 101.466 27.5 101.466 26.04V16.26H106.566V25.35C106.566 26.47 106.856 27.34 107.436 27.96C108.016 28.58 108.796 28.89 109.776 28.89C110.776 28.89 111.566 28.58 112.146 27.96C112.726 27.34 113.016 26.47 113.016 25.35V16.26H118.146ZM132.061 33L126.961 25.98V33H121.831V10.8H126.961V23.07L132.031 16.26H138.361L131.401 24.66L138.421 33H132.061ZM153.126 22.2C154.346 22.46 155.326 23.07 156.066 24.03C156.806 24.97 157.176 26.05 157.176 27.27C157.176 29.03 156.556 30.43 155.316 31.47C154.096 32.49 152.386 33 150.186 33H140.376V11.94H149.856C151.996 11.94 153.666 12.43 154.866 13.41C156.086 14.39 156.696 15.72 156.696 17.4C156.696 18.64 156.366 19.67 155.706 20.49C155.066 21.31 154.206 21.88 153.126 22.2ZM145.506 20.46H148.866C149.706 20.46 150.346 20.28 150.786 19.92C151.246 19.54 151.476 18.99 151.476 18.27C151.476 17.55 151.246 17 150.786 16.62C150.346 16.24 149.706 16.05 148.866 16.05H145.506V20.46ZM149.286 28.86C150.146 28.86 150.806 28.67 151.266 28.29C151.746 27.89 151.986 27.32 151.986 26.58C151.986 25.84 151.736 25.26 151.236 24.84C150.756 24.42 150.086 24.21 149.226 24.21H145.506V28.86H149.286ZM159.131 24.6C159.131 22.88 159.451 21.37 160.091 20.07C160.751 18.77 161.641 17.77 162.761 17.07C163.881 16.37 165.131 16.02 166.511 16.02C167.691 16.02 168.721 16.26 169.601 16.74C170.501 17.22 171.191 17.85 171.671 18.63V16.26H176.801V33H171.671V30.63C171.171 31.41 170.471 32.04 169.571 32.52C168.691 33 167.661 33.24 166.481 33.24C165.121 33.24 163.881 32.89 162.761 32.19C161.641 31.47 160.751 30.46 160.091 29.16C159.451 27.84 159.131 26.32 159.131 24.6ZM171.671 24.63C171.671 23.35 171.311 22.34 170.591 21.6C169.891 20.86 169.031 20.49 168.011 20.49C166.991 20.49 166.121 20.86 165.401 21.6C164.701 22.32 164.351 23.32 164.351 24.6C164.351 25.88 164.701 26.9 165.401 27.66C166.121 28.4 166.991 28.77 168.011 28.77C169.031 28.77 169.891 28.4 170.591 27.66C171.311 26.92 171.671 25.91 171.671 24.63ZM185.642 19.05C186.242 18.13 186.992 17.41 187.892 16.89C188.792 16.35 189.792 16.08 190.892 16.08V21.51H189.482C188.202 21.51 187.242 21.79 186.602 22.35C185.962 22.89 185.642 23.85 185.642 25.23V33H180.512V16.26H185.642V19.05ZM192.324 24.6C192.324 22.88 192.644 21.37 193.284 20.07C193.944 18.77 194.834 17.77 195.954 17.07C197.074 16.37 198.324 16.02 199.704 16.02C200.884 16.02 201.914 16.26 202.794 16.74C203.694 17.22 204.384 17.85 204.864 18.63V16.26H209.994V33H204.864V30.63C204.364 31.41 203.664 32.04 202.764 32.52C201.884 33 200.854 33.24 199.674 33.24C198.314 33.24 197.074 32.89 195.954 32.19C194.834 31.47 193.944 30.46 193.284 29.16C192.644 27.84 192.324 26.32 192.324 24.6ZM204.864 24.63C204.864 23.35 204.504 22.34 203.784 21.6C203.084 20.86 202.224 20.49 201.204 20.49C200.184 20.49 199.314 20.86 198.594 21.6C197.894 22.32 197.544 23.32 197.544 24.6C197.544 25.88 197.894 26.9 198.594 27.66C199.314 28.4 200.184 28.77 201.204 28.77C202.224 28.77 203.084 28.4 203.784 27.66C204.504 26.92 204.864 25.91 204.864 24.63ZM223.906 16.08C225.866 16.08 227.426 16.72 228.586 18C229.766 19.26 230.356 21 230.356 23.22V33H225.256V23.91C225.256 22.79 224.966 21.92 224.386 21.3C223.806 20.68 223.026 20.37 222.046 20.37C221.066 20.37 220.286 20.68 219.706 21.3C219.126 21.92 218.836 22.79 218.836 23.91V33H213.706V16.26H218.836V18.48C219.356 17.74 220.056 17.16 220.936 16.74C221.816 16.3 222.806 16.08 223.906 16.08ZM240.281 16.02C241.461 16.02 242.491 16.26 243.371 16.74C244.271 17.22 244.961 17.85 245.441 18.63V16.26H250.571V32.97C250.571 34.51 250.261 35.9 249.641 37.14C249.041 38.4 248.111 39.4 246.851 40.14C245.611 40.88 244.061 41.25 242.201 41.25C239.721 41.25 237.711 40.66 236.171 39.48C234.631 38.32 233.751 36.74 233.531 34.74H238.601C238.761 35.38 239.141 35.88 239.741 36.24C240.341 36.62 241.081 36.81 241.961 36.81C243.021 36.81 243.861 36.5 244.481 35.88C245.121 35.28 245.441 34.31 245.441 32.97V30.6C244.941 31.38 244.251 32.02 243.371 32.52C242.491 33 241.461 33.24 240.281 33.24C238.901 33.24 237.651 32.89 236.531 32.19C235.411 31.47 234.521 30.46 233.861 29.16C233.221 27.84 232.901 26.32 232.901 24.6C232.901 22.88 233.221 21.37 233.861 20.07C234.521 18.77 235.411 17.77 236.531 17.07C237.651 16.37 238.901 16.02 240.281 16.02ZM245.441 24.63C245.441 23.35 245.081 22.34 244.361 21.6C243.661 20.86 242.801 20.49 241.781 20.49C240.761 20.49 239.891 20.86 239.171 21.6C238.471 22.32 238.121 23.32 238.121 24.6C238.121 25.88 238.471 26.9 239.171 27.66C239.891 28.4 240.761 28.77 241.781 28.77C242.801 28.77 243.661 28.4 244.361 27.66C245.081 26.92 245.441 25.91 245.441 24.63Z" fill="white"/>
</svg>
